<svg width="14" height="14" viewBox="0 0 14 14" fill="none" xmlns="http://www.w3.org/2000/svg">
<path d="M0.952881 2.69727C0.952881 1.86884 1.62445 1.19727 2.45288 1.19727H11.4529C12.2813 1.19727 12.9529 1.86884 12.9529 2.69727V11.6973C12.9529 12.5257 12.2813 13.1973 11.4529 13.1973H2.45288C1.62445 13.1973 0.952881 12.5257 0.952881 11.6973V2.69727Z" fill="#0075FF"/>
<path d="M0.952881 2.69727C0.952881 1.86884 1.62445 1.19727 2.45288 1.19727H11.4529C12.2813 1.19727 12.9529 1.86884 12.9529 2.69727V11.6973C12.9529 12.5257 12.2813 13.1973 11.4529 13.1973H2.45288C1.62445 13.1973 0.952881 12.5257 0.952881 11.6973V2.69727Z" stroke="#0075FF"/>
<path d="M10.6196 4.44727L5.57792 9.48893L3.28625 7.19727" stroke="white" stroke-linecap="round" stroke-linejoin="round"/>
</svg>
