<svg width="21" height="20" viewBox="0 0 21 20" fill="none" xmlns="http://www.w3.org/2000/svg">
<path d="M15.6094 6.66663C16.9901 6.66663 18.1094 5.54734 18.1094 4.16663C18.1094 2.78591 16.9901 1.66663 15.6094 1.66663C14.2287 1.66663 13.1094 2.78591 13.1094 4.16663C13.1094 5.54734 14.2287 6.66663 15.6094 6.66663Z" stroke="#4B5563" stroke-width="2" stroke-linecap="round" stroke-linejoin="round"/>
<path d="M5.60938 12.5C6.99009 12.5 8.10938 11.3807 8.10938 10C8.10938 8.61929 6.99009 7.5 5.60938 7.5C4.22866 7.5 3.10938 8.61929 3.10938 10C3.10938 11.3807 4.22866 12.5 5.60938 12.5Z" stroke="#4B5563" stroke-width="2" stroke-linecap="round" stroke-linejoin="round"/>
<path d="M15.6094 18.3334C16.9901 18.3334 18.1094 17.2141 18.1094 15.8334C18.1094 14.4527 16.9901 13.3334 15.6094 13.3334C14.2287 13.3334 13.1094 14.4527 13.1094 15.8334C13.1094 17.2141 14.2287 18.3334 15.6094 18.3334Z" stroke="#4B5563" stroke-width="2" stroke-linecap="round" stroke-linejoin="round"/>
<path d="M7.76782 11.2583L13.4595 14.575" stroke="#4B5563" stroke-width="2" stroke-linecap="round" stroke-linejoin="round"/>
<path d="M13.4512 5.42505L7.76782 8.74172" stroke="#4B5563" stroke-width="2" stroke-linecap="round" stroke-linejoin="round"/>
</svg>
