<svg width="65" height="64" viewBox="0 0 65 64" fill="none" xmlns="http://www.w3.org/2000/svg">
<path d="M0.5 32C0.5 14.3269 14.8269 0 32.5 0C50.1731 0 64.5 14.3269 64.5 32C64.5 49.6731 50.1731 64 32.5 64C14.8269 64 0.5 49.6731 0.5 32Z" fill="#F3F4F6"/>
<path d="M21.8332 45.3333H43.1665C43.8737 45.3333 44.552 45.0523 45.0521 44.5522C45.5522 44.0521 45.8332 43.3739 45.8332 42.6666V21.3333C45.8332 20.626 45.5522 19.9478 45.0521 19.4477C44.552 18.9476 43.8737 18.6666 43.1665 18.6666H27.1665C26.4593 18.6666 25.781 18.9476 25.2809 19.4477C24.7808 19.9478 24.4998 20.626 24.4998 21.3333V42.6666C24.4998 43.3739 24.2189 44.0521 23.7188 44.5522C23.2187 45.0523 22.5404 45.3333 21.8332 45.3333ZM21.8332 45.3333C21.1259 45.3333 20.4476 45.0523 19.9476 44.5522C19.4475 44.0521 19.1665 43.3739 19.1665 42.6666V30.6666C19.1665 29.2 20.3665 28 21.8332 28H24.4998" stroke="#9CA3AF" stroke-width="2" stroke-linecap="round" stroke-linejoin="round"/>
<path d="M40.5002 34.6666H29.8335" stroke="#9CA3AF" stroke-width="2" stroke-linecap="round" stroke-linejoin="round"/>
<path d="M36.5002 40H29.8335" stroke="#9CA3AF" stroke-width="2" stroke-linecap="round" stroke-linejoin="round"/>
<path d="M29.8335 24H40.5002V29.3333H29.8335V24Z" stroke="#9CA3AF" stroke-width="2" stroke-linecap="round" stroke-linejoin="round"/>
</svg>
