<svg width="65" height="65" viewBox="0 0 65 65" fill="none" xmlns="http://www.w3.org/2000/svg">
<path d="M0.739746 32.4235C0.739746 14.7504 15.0666 0.423477 32.7397 0.423477C50.4129 0.423477 64.7397 14.7504 64.7397 32.4235C64.7397 50.0966 50.4129 64.4235 32.7397 64.4235C15.0666 64.4235 0.739746 50.0966 0.739746 32.4235Z" fill="#F3F4F6"/>
<path d="M42.0731 20.4235H23.4064C21.9337 20.4235 20.7397 21.6174 20.7397 23.0901V41.7568C20.7397 43.2296 21.9337 44.4235 23.4064 44.4235H42.0731C43.5458 44.4235 44.7397 43.2296 44.7397 41.7568V23.0901C44.7397 21.6174 43.5458 20.4235 42.0731 20.4235Z" stroke="#9CA3AF" stroke-width="2" stroke-linecap="round" stroke-linejoin="round"/>
<path d="M28.7397 31.0901C30.2124 31.0901 31.4063 29.8962 31.4063 28.4235C31.4063 26.9507 30.2124 25.7568 28.7397 25.7568C27.2669 25.7568 26.073 26.9507 26.073 28.4235C26.073 29.8962 27.2669 31.0901 28.7397 31.0901Z" stroke="#9CA3AF" stroke-width="2" stroke-linecap="round" stroke-linejoin="round"/>
<path d="M44.7397 36.4235L40.6251 32.3088C40.125 31.8089 39.4469 31.528 38.7397 31.528C38.0326 31.528 37.3545 31.8089 36.8544 32.3088L24.7397 44.4235" stroke="#9CA3AF" stroke-width="2" stroke-linecap="round" stroke-linejoin="round"/>
</svg>
