<svg width="65" height="64" viewBox="0 0 65 64" fill="none" xmlns="http://www.w3.org/2000/svg">
<path d="M0.5 32C0.5 14.3269 14.8269 0 32.5 0C50.1731 0 64.5 14.3269 64.5 32C64.5 49.6731 50.1731 64 32.5 64C14.8269 64 0.5 49.6731 0.5 32Z" fill="#F3F4F6"/>
<path d="M44.5 36C44.5 36.7072 44.219 37.3855 43.719 37.8856C43.2189 38.3857 42.5406 38.6667 41.8333 38.6667H25.8333L20.5 44V22.6667C20.5 21.9594 20.781 21.2811 21.281 20.781C21.7811 20.281 22.4594 20 23.1667 20H41.8333C42.5406 20 43.2189 20.281 43.719 20.781C44.219 21.2811 44.5 21.9594 44.5 22.6667V36Z" stroke="#9CA3AF" stroke-width="2" stroke-linecap="round" stroke-linejoin="round"/>
</svg>
